{"title":"30 Minutes or Less.2011.720p.BRRip.Xvid.AC3-SiNiSTER","uid":6817923,"size":2234510311,"categoryP":"video","categoryS":"hd___movies","magnet":"?xt=urn:btih:63792901dfb58e9d4f2c76176f7372f3353706dc&amp;dn=30+Minutes+or+Less.2011.720p.BRRip.Xvid.AC3-SiNiSTER&amp;tr=udp%3A%2F%2Ftracker.openbittorrent.com%3A80&amp;tr=udp%3A%2F%2Fopen.demonii.com%3A1337&amp;tr=udp%3A%2F%2Ftracker.coppersurfer.tk%3A6969&amp;tr=udp%3A%2F%2Fexodus.desync.com%3A6969","seeders":0,"leechers":0,"uploader":"wolfinvi","files":9,"time":1321291363,"description":"*******************************************************************************\n              30 Minutes or Less.2011.720p.BRRip.Xvid.AC3-SiNiSTER\n*******************************************************************************\n\n-------------------------------------------------------------------------------\n                              General Information\n-------------------------------------------------------------------------------\n\n\n[img]http://www.pix2links.com/image/Yofzc.jpg[/img]\n\n\nFormat                           : AVI\nFormat/Info                      : Audio Video Interleave\nFormat profile                   : OpenDML\nFile size                        : 2.08 GiB\nDuration                         : 1h 23mn\nOverall bit rate                 : 3 581 Kbps\nWriting library                  : MPlayer\n\nVideo\nID                               : 0\nFormat                           : MPEG-4 Visual\nFormat profile                   : Advanced Simple@L5\nFormat settings, BVOP            : Yes\nFormat settings, QPel            : No\nFormat settings, GMC             : No warppoints\nFormat settings, Matrix          : Default (H.263)\nMuxing mode                      : Packed bitstream\nCodec ID                         : XVID\nCodec ID/Hint                    : XviD\nDuration                         : 1h 23mn\nBit rate                         : 3 000 Kbps\nWidth                            : 1 280 pixels\nHeight                           : 528 pixels\nDisplay aspect ratio             : 2.40:1\nFrame rate                       : 23.976 fps\nColor space                      : YUV\nChroma subsampling               : 4:2:0\nBit depth                        : 8 bits\nScan type                        : Progressive\nBits/(Pixel*Frame)               : 0.185\nStream size                      : 1.74 GiB (84%)\nWriting library                  : XviD 1.2.1 (UTC 2008-12-04)\n\nAudio\nID                               : 1\nFormat                           : AC-3\nFormat/Info                      : Audio Coding 3\nMode extension                   : CM (complete main)\nCodec ID                         : 2000\nDuration                         : 1h 23mn\nBit rate mode                    : Constant\nBit rate                         : 576 Kbps\nChannel(s)                       : 6 channels\nChannel positions                : Front: L C R, Side: L R, LFE\nSampling rate                    : 48.0 KHz\nBit depth                        : 16 bits\nStream size                      : 342 MiB (16%)\nAlignment                        : Split accross interleaves\nInterleave, duration             : 500 ms (11.99 video frames)\nInterleave, preload duration     : 500 ms\n\n\n\nVideo Source: Uspet.za.30.minut.2011.x264.BDRip(1080p).....thanks\t\nAudio Source: Uspet.za.30.minut.2011.x264.BDRip(1080p).....thanks\n\n\nGreets:\nDarkScene,HDScene,Noir,CrEwSaDe,blackjesus,ViSiON,HDLiTE,UnKnOwN,IMAGiNE,\nFLAWL3SS,Rx,ELEKTRI4KA,CiNEDUB,BDK,SAFCuk009,HiVE-CM8..... and everybody else we \nrespect.. u know who u are\n\n-------------------------------------------------------------------------------\n                               Post Information\n-------------------------------------------------------------------------------\nEncoded by...........: SiNiSTER\n \nHave sumthing to offer..looking for suppliers... cammers,cams,screeners, audio\nsupplier.. and any pre retail DVD/BR any RC...if u can provide any email us at\n&lt;a class=&quot;__cf_email__&quot; href=&quot;/cdn-cgi/l/email-protection&quot; data-cfemail=&quot;6f1c0601061c1b0a1d2f071a1c07020e060341020a&quot;&gt;[email&amp;#160;protected]&lt;/a&gt;&lt;script cf-hash='f9e31' type=&quot;text/javascript&quot;&gt;\n/* &lt;![CDATA[ */!function(){try{var t=&quot;currentScript&quot;in document?document.currentScript:function(){for(var t=document.getElementsByTagName(&quot;script&quot;),e=t.length;e--;)if(t[e].getAttribute(&quot;cf-hash&quot;))return t[e]}();if(t&amp;&amp;t.previousSibling){var e,r,n,i,c=t.previousSibling,a=c.getAttribute(&quot;data-cfemail&quot;);if(a){for(e=&quot;&quot;,r=parseInt(a.substr(0,2),16),n=2;a.length-n;n+=2)i=parseInt(a.substr(n,2),16)^r,e+=String.fromCharCode(i);e=document.createTextNode(e),c.parentNode.replaceChild(e,c)}}}catch(u){}}();/* ]]&gt; */&lt;/script&gt;\n&lt;a class=&quot;__cf_email__&quot; href=&quot;/cdn-cgi/l/email-protection&quot; data-cfemail=&quot;3a1717171717171717171717171717171717171717171717171717171717171717171717171717171717171717171717171717171717171717171717171717171717&quot;&gt;[email&amp;#160;protected]&lt;/a&gt;&lt;script cf-hash='f9e31' type=&quot;text/javascript&quot;&gt;\n/* &lt;![CDATA[ */!function(){try{var t=&quot;currentScript&quot;in document?document.currentScript:function(){for(var t=document.getElementsByTagName(&quot;script&quot;),e=t.length;e--;)if(t[e].getAttribute(&quot;cf-hash&quot;))return t[e]}();if(t&amp;&amp;t.previousSibling){var e,r,n,i,c=t.previousSibling,a=c.getAttribute(&quot;data-cfemail&quot;);if(a){for(e=&quot;&quot;,r=parseInt(a.substr(0,2),16),n=2;a.length-n;n+=2)i=parseInt(a.substr(n,2),16)^r,e+=String.fromCharCode(i);e=document.createTextNode(e),c.parentNode.replaceChild(e,c)}}}catch(u){}}();/* ]]&gt; */&lt;/script&gt;--------------\n                                 Release Notes\n-------------------------------------------------------------------------------\n\nsource was very nice.. made a script to resize, denoise, slight RGB adjustment\nand sharpen.. then converted DTS to AC3 and remuxed to my encode....enjoy\n\n\n\n-------------------------------------------------------------------------------\n                                 ScreenShots\n-------------------------------------------------------------------------------\n &lt;a href=&quot;\nhttp://www.pix2links.com/image/8xqFH.png&quot; rel=&quot;nofollow&quot; target=&quot;_NEW&quot;&gt;\nhttp://www.pix2links.com/image/8xqFH.png&lt;/a&gt; &lt;a href=&quot;\nhttp://www.pix2links.com/image/kIHJj.png&quot; rel=&quot;nofollow&quot; target=&quot;_NEW&quot;&gt;\nhttp://www.pix2links.com/image/kIHJj.png&lt;/a&gt; &lt;a href=&quot;\nhttp://www.pix2links.com/image/dehIC.png&quot; rel=&quot;nofollow&quot; target=&quot;_NEW&quot;&gt;\nhttp://www.pix2links.com/image/dehIC.png&lt;/a&gt; &lt;a href=&quot;\nhttp://www.pix2links.com/image/Qo5Vd.png&quot; rel=&quot;nofollow&quot; target=&quot;_NEW&quot;&gt;\nhttp://www.pix2links.com/image/Qo5Vd.png&lt;/a&gt; &lt;a href=&quot;\nhttp://www.pix2links.com/image/8JXKn.jpg&quot; rel=&quot;nofollow&quot; target=&quot;_NEW&quot;&gt;\nhttp://www.pix2links.com/image/8JXKn.jpg&lt;/a&gt;\n\n-------------------------------------------------------------------------------\n\n[img]http://leetleech.org/images/33506450373550172140.gif[/img]\n\n\n-------------------------------------------------------------------------------\nGenerated with Cool NFO Creator - http://fly.to/coolbeans\n-------------------------------------------------------------------------------","torrent":{"xt":"urn:btih:63792901dfb58e9d4f2c76176f7372f3353706dc","amp;dn":"30+Minutes+or+Less.2011.720p.BRRip.Xvid.AC3-SiNiSTER","amp;tr":["udp%3A%2F%2Ftracker.openbittorrent.com%3A80","udp%3A%2F%2Fopen.demonii.com%3A1337","udp%3A%2F%2Ftracker.coppersurfer.tk%3A6969","udp%3A%2F%2Fexodus.desync.com%3A6969"],"infoHash":"63792901dfb58e9d4f2c76176f7372f3353706dc","infoHashBuffer":{"type":"Buffer","data":[99,121,41,1,223,181,142,157,79,44,118,23,111,115,114,243,53,55,6,220]},"announce":[],"urlList":[]}}